<svg width="1440" height="500" viewBox="0 0 1440 500" xmlns="http://www.w3.org/2000/svg"><mask id="satori_om-id"><rect x="0" y="0" width="1440" height="500" fill="#fff"></rect></mask><mask id="satori_om-id-0"><rect x="0" y="0" width="288" height="500" fill="#fff"></rect></mask><rect x="0" y="0" width="288" height="500" fill="#f72585"></rect><mask id="satori_om-id-0-0"><rect x="103" y="236" width="83" height="28" fill="#fff"></rect></mask><text x="103" y="256.7932104184129" width="12.86221590909091" height="28.238636363636363" font-weight="bold" font-style="normal" font-size="20" font-family="system-ui" fill="#FFFFFF">#</text><text x="115.8622159090909" y="256.7932104184129" width="69.92897727272728" height="28.238636363636363" font-weight="bold" font-style="normal" font-size="20" font-family="system-ui" fill="#FFFFFF">f72585</text><mask id="satori_om-id-1"><rect x="288" y="0" width="288" height="500" fill="#fff"></rect></mask><rect x="288" y="0" width="288" height="500" fill="#7209b7"></rect><mask id="satori_om-id-1-0"><rect x="388" y="236" width="88" height="28" fill="#fff"></rect></mask><text x="388" y="256.7932104184129" width="12.86221590909091" height="28.238636363636363" font-weight="bold" font-style="normal" font-size="20" font-family="system-ui" fill="#FFFFFF">#</text><text x="400.86221590909093" y="256.7932104184129" width="74.81534090909092" height="28.238636363636363" font-weight="bold" font-style="normal" font-size="20" font-family="system-ui" fill="#FFFFFF">7209b7</text><mask id="satori_om-id-2"><rect x="576" y="0" width="288" height="500" fill="#fff"></rect></mask><rect x="576" y="0" width="288" height="500" fill="#3a0ca3"></rect><mask id="satori_om-id-2-0"><rect x="677" y="236" width="87" height="28" fill="#fff"></rect></mask><text x="677" y="256.7932104184129" width="12.86221590909091" height="28.238636363636363" font-weight="bold" font-style="normal" font-size="20" font-family="system-ui" fill="#FFFFFF">#</text><text x="689.8622159090909" y="256.7932104184129" width="73.9346590909091" height="28.238636363636363" font-weight="bold" font-style="normal" font-size="20" font-family="system-ui" fill="#FFFFFF">3a0ca3</text><mask id="satori_om-id-3"><rect x="864" y="0" width="288" height="500" fill="#fff"></rect></mask><rect x="864" y="0" width="288" height="500" fill="#4361ee"></rect><mask id="satori_om-id-3-0"><rect x="965" y="236" width="86" height="28" fill="#fff"></rect></mask><text x="965" y="256.7932104184129" width="12.86221590909091" height="28.238636363636363" font-weight="bold" font-style="normal" font-size="20" font-family="system-ui" fill="#FFFFFF">#</text><text x="977.8622159090909" y="256.7932104184129" width="72.63494318181819" height="28.238636363636363" font-weight="bold" font-style="normal" font-size="20" font-family="system-ui" fill="#FFFFFF">4361ee</text><mask id="satori_om-id-4"><rect x="1152" y="0" width="288" height="500" fill="#fff"></rect></mask><rect x="1152" y="0" width="288" height="500" fill="#4cc9f0"></rect><mask id="satori_om-id-4-0"><rect x="1254" y="236" width="84" height="28" fill="#fff"></rect></mask><text x="1254" y="256.7932104184129" width="12.86221590909091" height="28.238636363636363" font-weight="bold" font-style="normal" font-size="20" font-family="system-ui" fill="#FFFFFF">#</text><text x="1266.862215909091" y="256.7932104184129" width="70.25568181818183" height="28.238636363636363" font-weight="bold" font-style="normal" font-size="20" font-family="system-ui" fill="#FFFFFF">4cc9f0</text></svg>