<?xml version="1.0"?><svg id="b" xmlns="http://www.w3.org/2000/svg" xmlns:xlink="http://www.w3.org/1999/xlink" viewBox="0 0 144 136.33"><defs><filter id="d" x="0" y="0" width="144" height="97" filterUnits="userSpaceOnUse"><feOffset dx="1.35" dy="1.35"></feOffset><feGaussianBlur result="e" stdDeviation="2.02"></feGaussianBlur><feFlood flood-color="#231f20" flood-opacity=".3"></feFlood><feComposite in2="e" operator="in"></feComposite><feComposite in="SourceGraphic"></feComposite></filter><linearGradient id="f" x1="-8.08" y1="93.8" x2="107.12" y2="40.37" gradientTransform="translate(152.13 -2.53) rotate(90)" gradientUnits="userSpaceOnUse"><stop offset="0" stop-color="#ff3b00"></stop><stop offset=".54" stop-color="#ff0051"></stop></linearGradient></defs><g id="c"><g filter="url(#d)"><path d="M114.27,10.96h-23.91l-3.93,28.01-25.72-18.17-1.19,8.53-17.35-13.41-1.03,7.61L5.3,4.79l44.45,51.56,1.41-9.92,18.12,14.95,1.03-7.1,12.58,9.94-3.33,23.74h19.11l3.17-22.11h4.8c19.44,0,26.97-15.4,28.61-27.49,1.75-12.1-1.53-27.38-20.97-27.38h0ZM116.13,38.34c-.87,6.49-4.26,10.12-11.79,10.12l2.84-20.24c7.53,0,9.94,3.63,8.95,10.12Z" fill="url(#f)"></path></g><path d="M9.95,111.65l-1.39,3.53h-2.02l5.17-12.6h2.14l5.17,12.6h-2.08l-1.37-3.53h-5.63ZM12.7,104.47c-.48,1.32-1.05,2.81-1.57,4.16l-.55,1.43h4.37l-.57-1.43c-.5-1.34-1.11-2.88-1.55-4.16h-.13Z" fill="#fff"></path><path d="M25.45,110.42v4.77h-1.93v-12.6h4.81c2.79,0,4.33,1.3,4.33,3.91,0,2.27-1.58,3.93-4.28,3.93h-2.92ZM25.45,104.3v4.39h2.73c1.66,0,2.5-.73,2.5-2.18,0-1.53-.76-2.2-2.54-2.2h-2.69Z" fill="#ff3d00"></path><path d="M33.39,110.25c0-3.23,2.02-5.12,5-5.12s4.96,1.89,4.96,5.12-1.87,5.19-4.96,5.19-5-1.99-5-5.19ZM35.21,110.23c0,2.1,1.11,3.53,3.15,3.53s3.15-1.43,3.15-3.53-1.2-3.42-3.15-3.42-3.15,1.32-3.15,3.42Z" fill="#ff3d00"></path><path d="M52.08,105.38l1.11,3.82c.44,1.49.86,3.04,1.28,4.62h.04c.4-1.6.84-3.02,1.28-4.68l1.03-3.76h1.83l-3.13,9.8h-2.16l-1.28-4.33c-.4-1.34-.74-2.73-1.05-4.09h-.04c-.32,1.37-.69,2.75-1.05,4.09l-1.22,4.33h-2.16l-3.17-9.8h1.87l1.15,3.76c.5,1.62.95,3.11,1.3,4.68h.06c.4-1.57.8-3.13,1.24-4.62l1.09-3.82h1.97Z" fill="#ff3d00"></path><path d="M58.71,110.35c0-3.3,1.99-5.23,4.98-5.23s4.49,1.87,4.49,4.56c0,.34-.02.74-.04,1.18h-7.58c.17,1.93,1.3,2.96,3.15,2.96s2.46-.9,2.79-2.06l1.62.48c-.5,1.93-1.91,3.17-4.41,3.17-3.02,0-5-1.85-5-5.06ZM66.48,109.43c-.15-1.76-1.03-2.73-2.86-2.73-1.68,0-2.79.9-3.04,2.73h5.9Z" fill="#ff3d00"></path><path d="M71.59,108.4h.04c.4-2.27,1.32-3.02,2.9-3.02h.61v2.02h-.88c-1.85,0-2.67.69-2.67,2.6v5.19h-1.83v-9.8h1.83v3.02Z" fill="#ff3d00"></path><path d="M79.34,105.38h2.88v1.57h-2.88v8.23h-1.83v-8.23h-1.7v-1.57h1.7v-.19c0-1.93,1.09-3.23,3.3-3.23.69,0,1.22.08,1.58.17l-.17,1.39c-.44-.08-.8-.13-1.2-.13-1.2,0-1.68.63-1.68,1.81v.19Z" fill="#ff3d00"></path><path d="M90.4,112.54h-.02c-.42,2-1.68,2.9-3.42,2.9-2.54,0-3.42-1.68-3.42-3.78v-6.28h1.83v5.82c0,1.34.59,2.56,2.35,2.56s2.69-.95,2.69-2.56v-5.82h1.83v9.8h-1.83v-2.65Z" fill="#ff3d00"></path><path d="M96.2,102.31v12.87h-1.83v-12.87h1.83Z" fill="#ff3d00"></path><path d="M103.74,102.31v12.87h-1.83v-12.87h1.83Z" fill="#fff"></path><path d="M108.02,103.86h-2.08v-1.55h2.08v1.55ZM107.89,115.18h-1.83v-9.8h1.83v9.8Z" fill="#fff"></path><path d="M109.45,105.38h1.45v-2.71h1.83v2.71h3.13v1.57h-3.13v5.06c0,1.09.42,1.66,1.51,1.66.52,0,.99-.11,1.49-.25l.23,1.68c-.67.23-1.2.34-2.1.34-2.04,0-2.96-1.34-2.96-3.17v-5.31h-1.45v-1.57Z" fill="#fff"></path><path d="M116.57,105.38h1.45v-2.71h1.83v2.71h3.13v1.57h-3.13v5.06c0,1.09.42,1.66,1.51,1.66.53,0,.99-.11,1.49-.25l.23,1.68c-.67.23-1.2.34-2.1.34-2.04,0-2.96-1.34-2.96-3.17v-5.31h-1.45v-1.57Z" fill="#fff"></path><path d="M126.29,102.31v12.87h-1.83v-12.87h1.83Z" fill="#fff"></path><path d="M127.86,110.35c0-3.3,1.99-5.23,4.98-5.23s4.49,1.87,4.49,4.56c0,.34-.02.74-.04,1.18h-7.58c.17,1.93,1.3,2.96,3.15,2.96s2.46-.9,2.79-2.06l1.62.48c-.5,1.93-1.91,3.17-4.41,3.17-3.02,0-5-1.85-5-5.06ZM135.63,109.43c-.15-1.76-1.03-2.73-2.86-2.73-1.68,0-2.79.9-3.04,2.73h5.9Z" fill="#fff"></path><path d="M20.23,123.12c2.16,0,3.28,1.18,3.67,3.17h.04v-5.98h1.83v12.87h-1.83v-2.88h-.04c-.42,1.93-1.57,3.13-3.65,3.13-2.67,0-4.05-1.95-4.05-5.12s1.49-5.19,4.03-5.19ZM23.95,128.23c0-2.1-1.18-3.46-3.02-3.46s-2.9,1.3-2.9,3.55.9,3.44,2.9,3.44c1.85,0,3.02-1.2,3.02-3.38v-.15Z" fill="#fff"></path><path d="M27.35,128.35c0-3.3,1.99-5.23,4.98-5.23s4.49,1.87,4.49,4.56c0,.34-.02.74-.04,1.18h-7.58c.17,1.93,1.3,2.96,3.15,2.96s2.46-.9,2.79-2.06l1.62.48c-.5,1.93-1.91,3.17-4.41,3.17-3.02,0-5-1.85-5-5.06ZM35.12,127.43c-.15-1.76-1.03-2.73-2.86-2.73-1.68,0-2.79.9-3.04,2.73h5.9Z" fill="#fff"></path><path d="M37.68,129.99l1.72-.34c.34,1.34,1.01,2.33,2.86,2.33,1.37,0,2.08-.57,2.08-1.47,0-.84-.59-1.26-2.69-1.6-2.58-.48-3.53-1.41-3.53-2.94,0-1.7,1.26-2.86,3.72-2.86s3.61,1.15,4.05,3.06l-1.74.42c-.36-1.49-1.03-2.06-2.31-2.06s-1.89.5-1.89,1.32.5,1.32,2.52,1.66c2.69.44,3.67,1.43,3.67,2.94,0,1.79-1.24,2.96-3.91,2.96-3.07,0-4.14-1.39-4.56-3.44Z" fill="#fff"></path><path d="M49.82,121.86h-2.08v-1.55h2.08v1.55ZM49.7,133.18h-1.83v-9.8h1.83v9.8Z" fill="#fff"></path><path d="M53.92,129.72c-1.43-.44-2.21-1.51-2.21-2.96,0-2.18,1.53-3.38,4.16-3.38h4.72v1.57h-1.41c-.5,0-.97,0-1.7-.06v.04c1.32.23,2.31.8,2.31,2.25,0,1.83-1.39,2.79-4.07,2.79-.61,0-1.18-.06-1.68-.21l-.27.4c-.17.25-.27.4-.27.59,0,.38.31.57.94.57,1.18,0,2.5-.06,3.61-.06,1.95,0,2.83.88,2.83,2.33,0,1.83-1.24,2.75-4.93,2.75s-4.83-.76-4.83-2.04c0-.84.78-1.51,2.29-1.7-.82-.15-1.37-.53-1.37-1.26,0-.5.44-.97,1.11-1.22l.76-.4ZM53.37,126.82c0,1.18.65,1.87,2.39,1.87s2.44-.67,2.44-1.87-.82-1.91-2.48-1.91-2.35.74-2.35,1.91ZM54.29,132.63c-1.2,0-1.7.57-1.7,1.13,0,.84.69,1.15,3.32,1.15,2.86,0,3.46-.44,3.46-1.34,0-.5-.32-.94-1.24-.94h-3.84Z" fill="#fff"></path><path d="M63.99,126.02h.02c.42-1.99,1.72-2.9,3.42-2.9,2.56,0,3.42,1.68,3.42,3.78v6.28h-1.83v-5.82c0-1.34-.59-2.58-2.35-2.58s-2.69.97-2.69,2.58v5.82h-1.83v-9.8h1.83v2.64Z" fill="#fff"></path><path d="M75.76,129.99l1.72-.34c.34,1.34,1.01,2.33,2.86,2.33,1.37,0,2.08-.57,2.08-1.47,0-.84-.59-1.26-2.69-1.6-2.58-.48-3.53-1.41-3.53-2.94,0-1.7,1.26-2.86,3.72-2.86s3.61,1.15,4.05,3.06l-1.74.42c-.36-1.49-1.03-2.06-2.31-2.06s-1.89.5-1.89,1.32.5,1.32,2.52,1.66c2.69.44,3.67,1.43,3.67,2.94,0,1.79-1.24,2.96-3.91,2.96-3.07,0-4.14-1.39-4.56-3.44Z" fill="#fff"></path><path d="M84.97,123.38h1.45v-2.71h1.83v2.71h3.13v1.57h-3.13v5.06c0,1.09.42,1.66,1.51,1.66.53,0,.99-.11,1.49-.25l.23,1.68c-.67.23-1.2.34-2.1.34-2.04,0-2.96-1.34-2.96-3.17v-5.31h-1.45v-1.57Z" fill="#fff"></path><path d="M99.5,130.54h-.02c-.42,2-1.68,2.9-3.42,2.9-2.54,0-3.42-1.68-3.42-3.78v-6.28h1.83v5.82c0,1.34.59,2.56,2.35,2.56s2.69-.95,2.69-2.56v-5.82h1.83v9.8h-1.83v-2.65Z" fill="#fff"></path><path d="M106.94,123.12c2.16,0,3.28,1.18,3.67,3.17h.04v-5.98h1.83v12.87h-1.83v-2.88h-.04c-.42,1.93-1.58,3.13-3.65,3.13-2.67,0-4.05-1.95-4.05-5.12s1.49-5.19,4.03-5.19ZM110.65,128.23c0-2.1-1.18-3.46-3.02-3.46s-2.9,1.3-2.9,3.55.9,3.44,2.9,3.44c1.85,0,3.02-1.2,3.02-3.38v-.15Z" fill="#fff"></path><path d="M116.77,121.86h-2.08v-1.55h2.08v1.55ZM116.64,133.18h-1.83v-9.8h1.83v9.8Z" fill="#fff"></path><path d="M118.4,128.25c0-3.23,2.02-5.12,5-5.12s4.96,1.89,4.96,5.12-1.87,5.19-4.96,5.19-5-1.99-5-5.19ZM120.23,128.23c0,2.1,1.11,3.53,3.15,3.53s3.15-1.43,3.15-3.53-1.2-3.42-3.15-3.42-3.15,1.32-3.15,3.42Z" fill="#fff"></path></g></svg>